<?xml version="1.0" standalone="no"?>
<!DOCTYPE svg PUBLIC "-//W3C//DTD SVG 20010904//EN"
 "http://www.w3.org/TR/2001/REC-SVG-20010904/DTD/svg10.dtd">
<svg version="1.0" xmlns="http://www.w3.org/2000/svg"
 width="328.000000pt" height="327.000000pt" viewBox="0 0 328.000000 327.000000"
 preserveAspectRatio="xMidYMid meet">

<g transform="translate(0.000000,327.000000) scale(0.100000,-0.100000)"
fill="#000000" stroke="none">
<path d="M2720 3151 l-85 -16 -3 -562 -2 -561 -38 -6 c-20 -3 -134 -22 -252
-40 -118 -19 -278 -45 -355 -57 -77 -12 -149 -25 -160 -29 -23 -9 -92 -100
-75 -100 6 0 203 32 438 70 234 39 430 69 435 67 4 -1 8 -273 7 -606 l-1 -603
48 6 c26 4 81 12 121 18 l72 11 0 1213 0 1214 -32 -1 c-18 -1 -71 -9 -118 -18z"/>
<path d="M1110 2887 c-52 -12 -104 -28 -115 -36 -19 -12 -19 -12 5 -6 138 33
262 30 387 -9 305 -97 456 -402 363 -734 -62 -223 -236 -431 -448 -537 -114
-57 -207 -78 -345 -79 l-119 -1 39 -33 c206 -179 486 -348 878 -529 135 -63
386 -183 479 -229 38 -19 84 -34 102 -34 46 0 174 23 174 31 0 3 -28 14 -62
24 -273 76 -677 247 -974 413 -187 105 -234 151 -234 228 0 67 47 126 163 205
126 85 149 104 231 187 203 207 282 447 230 699 -24 116 -67 197 -149 278
-156 156 -380 216 -605 162z"/>
<path d="M1017 2605 l-43 -47 -85 0 c-83 1 -87 0 -135 -36 -58 -45 -83 -86
-123 -209 -36 -105 -40 -193 -16 -288 37 -145 135 -279 245 -334 248 -123 529
-2 627 272 36 99 38 272 5 360 -24 67 -103 189 -135 212 -43 30 -49 14 -8 -21
45 -39 96 -127 87 -151 -3 -8 1 -24 9 -37 19 -29 15 -223 -5 -236 -10 -6 -10
-15 -1 -40 15 -46 14 -80 -3 -80 -24 0 -47 41 -41 75 4 20 -1 41 -15 63 -36
59 -73 32 -75 -54 0 -30 -3 -55 -5 -56 -20 -5 -48 18 -59 49 -17 47 -54 83
-85 83 -19 0 -23 -4 -19 -19 3 -13 -8 -28 -42 -52 -26 -18 -42 -35 -36 -37 23
-8 9 -47 -29 -83 -36 -34 -40 -43 -40 -87 0 -36 -5 -54 -20 -67 -11 -10 -20
-24 -20 -31 0 -18 -40 -44 -66 -44 -25 0 -76 59 -98 112 -7 18 -19 63 -26 101
-12 68 -40 117 -65 117 -30 0 -55 51 -55 109 0 102 79 192 130 146 10 -9 21
-27 24 -41 5 -17 13 -24 30 -24 13 0 37 -5 55 -11 18 -6 35 -9 38 -5 10 10
-46 56 -62 50 -8 -4 -15 -1 -15 5 0 6 -9 11 -20 11 -12 0 -20 6 -19 13 4 33
-1 39 -30 32 -16 -3 -32 -2 -35 3 -8 14 23 52 44 52 14 0 20 10 25 40 4 25 14
44 26 51 25 13 41 2 33 -23 -4 -14 7 -7 35 21 49 49 82 59 126 38 32 -15 33
-15 39 9 6 24 36 34 36 12 0 -7 13 2 29 20 17 17 39 32 50 32 12 0 21 6 21 13
0 25 -34 46 -87 53 l-53 7 -43 -48z"/>
<path d="M1934 755 c-4 -8 -4 -24 -1 -35 8 -32 -9 -32 -36 0 -39 46 -47 39
-47 -45 0 -60 3 -75 15 -75 11 0 15 11 15 40 0 48 8 50 35 10 18 -27 47 -38
46 -17 -1 4 -1 36 -1 72 0 61 -13 85 -26 50z"/>
<path d="M1720 723 c-36 -13 -60 -47 -60 -83 0 -68 67 -94 115 -45 56 55 14
153 -55 128z m38 -35 c7 -7 12 -24 12 -38 0 -32 -17 -50 -47 -50 -42 0 -52 58
-14 87 20 16 34 16 49 1z"/>
<path d="M3170 713 c-75 -11 -70 -3 -70 -114 l0 -101 38 6 c78 14 92 18 92 28
0 6 -18 7 -50 3 l-50 -7 0 35 c0 37 2 39 68 52 51 10 37 25 -18 18 -49 -6 -50
-5 -50 20 0 26 5 30 68 42 17 4 32 11 32 16 0 9 -14 10 -60 2z"/>
<path d="M1580 624 c0 -56 3 -75 13 -71 12 4 19 93 9 129 -11 42 -22 12 -22
-58z"/>
<path d="M3030 620 c0 -38 -3 -70 -7 -70 -5 0 -30 21 -58 45 -88 79 -85 81
-85 -35 0 -77 3 -101 13 -98 7 3 14 31 17 72 l5 68 63 -56 c34 -31 67 -56 72
-56 6 0 10 43 10 100 0 82 -3 100 -15 100 -12 0 -15 -14 -15 -70z"/>
<path d="M1483 673 c-26 -5 -31 -28 -8 -37 11 -4 15 -21 15 -62 0 -40 3 -54
13 -51 7 2 12 24 12 59 0 30 6 61 12 70 7 8 10 18 6 21 -7 7 -13 7 -50 0z"/>
<path d="M1344 637 c-17 -47 -42 -142 -38 -146 3 -3 13 4 22 15 22 27 61 38
69 18 5 -13 33 -20 33 -8 0 3 -11 30 -25 60 -14 30 -25 59 -25 64 0 15 -30 12
-36 -3z m22 -74 c-10 -10 -19 5 -10 18 6 11 8 11 12 0 2 -7 1 -15 -2 -18z"/>
<path d="M2810 560 c0 -49 0 -93 -1 -97 0 -4 4 -9 10 -11 7 -2 11 30 11 97 0
61 -4 101 -10 101 -6 0 -10 -37 -10 -90z"/>
<path d="M2620 528 c-56 -122 -54 -118 -38 -118 8 0 20 16 27 35 8 24 20 37
37 40 13 3 34 7 47 10 18 3 27 -3 41 -25 18 -31 37 -40 35 -17 -1 19 -83 160
-95 164 -6 2 -30 -38 -54 -89z m69 -9 c-8 -5 -22 -9 -32 -9 -16 0 -17 2 -1 31
l16 31 15 -22 c13 -19 13 -24 2 -31z"/>
<path d="M1157 603 c-16 -4 -17 -12 -11 -76 4 -40 8 -74 10 -75 1 -2 19 1 39
8 25 8 41 22 52 46 15 31 15 37 0 69 -17 35 -37 42 -90 28z m66 -45 c15 -23
-6 -68 -33 -68 -17 0 -20 7 -20 46 0 41 2 45 21 42 12 -2 27 -11 32 -20z"/>
<path d="M2466 514 c-21 -43 -41 -74 -48 -72 -7 3 -26 30 -43 61 -16 31 -34
55 -40 54 -9 -3 -38 -187 -30 -195 12 -12 23 14 29 68 4 33 10 60 14 60 4 0
21 -25 37 -55 17 -30 33 -55 37 -55 4 0 22 30 39 68 34 72 40 71 54 -11 3 -21
11 -37 16 -35 6 2 11 7 11 11 3 22 -25 177 -32 177 -4 0 -24 -34 -44 -76z"/>
<path d="M1060 541 c0 -23 -2 -41 -5 -41 -3 0 -18 14 -34 32 -33 37 -53 31
-47 -15 3 -18 5 -49 5 -69 1 -51 21 -49 21 2 0 48 18 53 42 10 9 -17 24 -30
33 -30 14 0 16 11 13 72 -2 46 -7 73 -15 76 -9 2 -13 -9 -13 -37z"/>
<path d="M2237 543 c-4 -3 -7 -38 -7 -77 0 -81 -17 -116 -55 -116 -33 0 -45
27 -45 104 0 37 -4 66 -10 66 -15 0 -13 -163 2 -178 19 -19 82 -14 106 8 19
18 22 31 22 110 0 90 -1 96 -13 83z"/>
<path d="M824 522 c-46 -37 -56 -90 -24 -122 26 -26 60 -25 94 1 35 28 38 100
4 123 -29 20 -48 20 -74 -2z m64 -24 c18 -18 14 -52 -8 -76 -24 -25 -25 -25
-51 -12 -24 13 -25 57 -2 82 19 21 44 23 61 6z"/>
<path d="M2030 476 l0 -44 -47 -10 c-26 -6 -50 -8 -53 -5 -3 2 -5 19 -5 35 0
17 -6 33 -12 35 -10 4 -13 -20 -13 -96 0 -61 4 -101 10 -101 6 0 10 20 10 44
0 51 10 61 68 69 l42 5 0 -44 c0 -32 4 -44 15 -44 12 0 15 18 15 100 0 82 -3
100 -15 100 -11 0 -15 -12 -15 -44z"/>
<path d="M688 503 c-15 -4 -18 -16 -18 -80 0 -55 3 -74 13 -71 6 3 13 19 15
37 2 23 10 35 23 38 25 7 25 23 0 23 -31 0 -35 19 -7 30 48 18 26 37 -26 23z"/>
<path d="M1715 453 c-71 -15 -65 -4 -65 -108 0 -51 3 -96 8 -98 4 -3 33 0 65
5 71 12 78 33 7 24 l-50 -7 0 36 c0 38 3 40 63 50 58 9 46 27 -14 19 l-51 -7
4 29 c3 26 8 30 51 38 26 4 47 12 47 17 0 9 -29 10 -65 2z"/>
<path d="M1506 401 c-25 -28 -14 -65 24 -81 39 -16 53 -35 45 -59 -8 -27 -34
-34 -60 -17 -22 14 -35 12 -35 -6 0 -14 50 -28 76 -22 31 8 58 47 50 72 -4 11
-25 32 -47 46 -52 35 -50 62 5 59 49 -3 44 21 -5 25 -25 2 -40 -3 -53 -17z"/>
<path d="M3010 408 c-30 -5 -134 -22 -230 -38 -281 -48 -1056 -204 -1069 -216
-2 -2 34 -1 80 2 46 2 318 11 604 19 286 8 562 18 613 21 l92 6 0 109 c0 123
8 114 -90 97z"/>
<path d="M1351 381 c-20 -37 -13 -59 29 -82 48 -27 55 -44 30 -69 -16 -16 -25
-18 -40 -10 -24 13 -40 13 -40 0 0 -16 40 -32 65 -26 35 9 55 34 55 67 0 23
-7 32 -41 49 -31 16 -40 26 -37 43 3 19 9 22 41 20 27 -2 37 1 34 10 -2 6 -22
13 -45 15 -32 2 -43 -1 -51 -17z"/>
<path d="M1233 373 c-48 -6 -54 -21 -51 -120 2 -71 6 -88 18 -86 76 8 110 16
110 25 0 7 -17 8 -50 4 l-50 -7 0 36 c0 38 3 40 63 50 56 9 45 25 -14 18 l-51
-6 4 29 c3 26 8 30 51 38 26 4 47 12 47 17 0 9 -17 9 -77 2z"/>
<path d="M1117 343 c-4 -3 -7 -23 -7 -44 0 -36 -1 -38 -47 -47 -26 -6 -51 -8
-55 -6 -4 3 -8 21 -8 40 0 19 -4 34 -10 34 -6 0 -10 -40 -10 -100 0 -60 4
-100 10 -100 6 0 10 22 10 50 0 54 3 56 75 62 29 3 30 1 33 -40 2 -28 7 -42
15 -39 8 2 13 35 15 92 3 82 -5 115 -21 98z"/>
<path d="M804 296 c-41 -18 -84 -76 -84 -112 0 -87 108 -121 186 -59 37 29 25
44 -13 16 -16 -12 -45 -22 -66 -23 -48 -2 -77 24 -77 70 0 63 86 117 145 90
27 -12 45 -4 28 13 -17 17 -86 20 -119 5z"/>
<path d="M660 160 c0 -60 4 -100 10 -100 6 0 10 40 10 100 0 60 -4 100 -10
100 -6 0 -10 -40 -10 -100z"/>
<path d="M487 228 c-15 -11 -17 -26 -15 -102 2 -61 7 -91 16 -94 8 -2 12 10
12 42 0 25 4 46 8 46 4 0 23 -16 42 -35 30 -31 60 -46 60 -29 0 4 -14 22 -31
41 l-30 35 31 19 c26 16 31 25 28 52 -3 31 -5 32 -53 35 -30 2 -57 -2 -68 -10z
m97 -17 c16 -25 -47 -73 -73 -56 -12 7 -15 48 -4 58 10 10 71 8 77 -2z"/>
</g>
</svg>
